<?xml version="1.0" encoding="UTF-8"?>
<svg version="1.1" xmlns="http://www.w3.org/2000/svg" width="299" height="299">
<path d="M0 0 C0.65419922 0.226875 1.30839844 0.45375 1.98242188 0.6875 C3.30656144 1.15865034 4.62700629 1.64032617 5.94335938 2.1328125 C15.92671966 5.5355641 25.95896735 2.04828381 35.78125 -0.5859375 C42.90228837 -2.34347038 48.93068673 -2.2145553 56.16796875 -1.2265625 C56.82315491 -1.13981262 57.47834106 -1.05306274 58.15338135 -0.96368408 C62.6048614 -0.37154828 67.04835363 0.26686947 71.48974609 0.93017578 C73.8231215 1.27793133 76.15755749 1.6178115 78.4921875 1.95703125 C79.98053696 2.1766215 81.46882087 2.39665664 82.95703125 2.6171875 C83.65277252 2.71825806 84.34851379 2.81932861 85.06533813 2.92346191 C89.9377439 3.65832508 89.9377439 3.65832508 92.16796875 4.7734375 C91.79706538 16.5911863 91.027535 28.32527926 89.79296875 40.0859375 C89.62220825 41.76284668 89.62220825 41.76284668 89.44799805 43.47363281 C88.78450535 49.54819837 87.81758822 55.39009121 86.48828125 61.35546875 C84.49160789 71.02619678 85.49608797 80.39562436 86.41796875 90.1484375 C86.56974587 91.89826196 86.71949214 93.64826379 86.8671875 95.3984375 C86.94021591 96.26044266 87.01324432 97.12244781 87.08848572 98.01057434 C87.19743919 99.29698067 87.19743919 99.29698067 87.30859375 100.609375 C87.38159195 101.46194382 87.45459015 102.31451263 87.52980042 103.19291687 C87.74546017 105.71952022 87.95752884 108.24639438 88.16796875 110.7734375 C88.23619843 111.58044098 88.3044281 112.38744446 88.37472534 113.21890259 C89.17629834 123.05704961 89.18747683 131.96389728 87.23046875 141.7109375 C84.23670814 157.33184682 85.73439287 171.56346815 87.53442383 187.23168945 C89.17037288 201.59257557 88.94987051 214.49508554 86.50488281 228.79663086 C82.95647122 250.57271914 85.08100704 271.92800046 87.16796875 293.7734375 C78.19519489 293.91605112 69.44174486 293.37419145 60.51953125 292.484375 C49.10690803 291.43043882 38.04423631 291.02014558 26.765625 293.1484375 C25.71316086 293.34288452 25.71316086 293.34288452 24.63943481 293.54125977 C21.78480154 294.07663876 18.93515661 294.61902736 16.09790039 295.24072266 C6.99887742 297.19833122 1.44109884 297.47766319 -6.67578125 292.6640625 C-17.44392339 286.54562361 -27.92603732 289.64298782 -39.56130981 291.81860352 C-46.15978528 293.03189887 -52.78170512 294.05083039 -59.42578125 294.9765625 C-60.44122104 295.11824356 -60.44122104 295.11824356 -61.47717476 295.26278687 C-82.07432842 298.04776273 -102.40915461 295.7678035 -122.98298645 293.5977478 C-137.35830309 292.12848776 -150.83076945 292.40479613 -165.08203125 294.8984375 C-178.01302623 296.94931881 -189.91393005 296.7064729 -202.83203125 294.7734375 C-201.45103819 274.113575 -199.69756306 253.63338852 -196.45825195 233.17260742 C-196.35073608 232.47924789 -196.24322021 231.78588837 -196.13244629 231.07151794 C-195.84355854 229.21935151 -195.54395021 227.36886578 -195.2434082 225.51855469 C-194.33100397 217.2121565 -194.9434858 209.88536681 -196.87109375 201.77734375 C-197.29094527 199.90052043 -197.71019788 198.02356305 -198.12890625 196.14648438 C-198.79033786 193.23751012 -199.45833148 190.33037795 -200.13769531 187.42553711 C-204.8570716 167.10714524 -204.8570716 167.10714524 -201.83203125 157.7734375 C-200.9526919 154.5518937 -200.0878733 151.32698112 -199.22839355 148.10011292 C-199.04280884 147.403853 -198.85722412 146.70759308 -198.66601562 145.99023438 C-198.47869873 145.2824585 -198.29138184 144.57468262 -198.09838867 143.84545898 C-197.71863231 142.44511741 -197.32422231 141.04865049 -196.91381836 139.65698242 C-193.72874651 128.7654638 -193.95843982 119.65809311 -195.54046631 108.46208191 C-196.77445385 99.41981365 -197.15610565 90.52125929 -197.203125 81.4140625 C-197.20821516 80.7077173 -197.21330532 80.00137211 -197.21854973 79.27362251 C-197.2643295 72.7361386 -197.27038604 66.19875168 -197.26782227 59.66113281 C-197.26871483 55.32857013 -197.28858877 50.99644592 -197.328125 46.6640625 C-197.33444317 45.96205215 -197.34076134 45.26004181 -197.34727097 44.53675842 C-197.52679578 29.42528674 -199.41566734 14.68184401 -201.83203125 -0.2265625 C-201.2003302 -0.13682159 -200.56862915 -0.04708069 -199.91778564 0.04537964 C-196.26805853 0.56367406 -192.61834866 1.08194575 -188.96777344 1.59423828 C-183.92100347 2.30710616 -178.90993259 3.11268054 -173.89453125 4.0234375 C-165.69949706 5.28583044 -157.76309766 4.26402145 -149.58984375 3.25390625 C-148.86120117 3.16463867 -148.13255859 3.07537109 -147.38183594 2.98339844 C-145.99331064 2.80944309 -144.60576761 2.62732197 -143.21972656 2.43457031 C-132.58632131 1.05123581 -122.38602143 1.89613538 -111.82938385 3.56246185 C-109.72530282 3.89219212 -107.619426 4.206646 -105.51239014 4.51690674 C-99.53069085 5.39833327 -93.550882 6.28965311 -87.578125 7.22998047 C-83.89805456 7.80823504 -80.21439027 8.35511428 -76.52681732 8.88330841 C-75.14276752 9.08732274 -73.76027967 9.30231264 -72.37985992 9.52959442 C-61.44758184 11.32300511 -53.19903611 9.98679641 -42.83203125 6.7734375 C-41.28509769 6.3389834 -39.73764279 5.90637132 -38.18920898 5.47729492 C-36.97692627 5.11482666 -35.76464355 4.7523584 -34.515625 4.37890625 C-33.14146802 3.97655728 -31.76711365 3.57488195 -30.39257812 3.17382812 C-28.3106654 2.56362512 -26.23039919 1.94915139 -24.15307617 1.32348633 C-22.08995773 0.70414537 -20.02229058 0.10268442 -17.953125 -0.49609375 C-16.75099365 -0.85292236 -15.5488623 -1.20975098 -14.31030273 -1.57739258 C-9.26621326 -2.51880017 -4.78048428 -1.76624536 0 0 Z " fill="#EB5C24" transform="translate(203.83203125,2.2265625)"/>
<path d="M0 0 C4.30494946 2.84289115 6.47462041 5.11598645 8 10 C8.63881691 16.62876247 9.13046257 23.44524 5 29 C2.72130656 31.54677502 1.18145309 32.85462189 -2.25390625 33.27734375 C-8.27145086 33.36427457 -8.27145086 33.36427457 -11 32 C-11.06058594 32.85464844 -11.12117188 33.70929688 -11.18359375 34.58984375 C-11.26738281 35.69457031 -11.35117188 36.79929688 -11.4375 37.9375 C-11.51871094 39.03964844 -11.59992188 40.14179688 -11.68359375 41.27734375 C-12 44 -12 44 -13 45 C-16 45.125 -16 45.125 -19 45 C-20 44 -20 44 -20.12025452 42.24729919 C-20.11803391 41.48562943 -20.11581329 40.72395966 -20.11352539 39.93920898 C-20.11344986 39.07839218 -20.11337433 38.21757538 -20.11329651 37.33067322 C-20.10813522 36.39526199 -20.10297394 35.45985077 -20.09765625 34.49609375 C-20.0962413 33.54307877 -20.09482635 32.59006378 -20.09336853 31.60816956 C-20.08775152 28.55124835 -20.07519616 25.49439923 -20.0625 22.4375 C-20.05748719 20.37044376 -20.05292391 18.30338638 -20.04882812 16.23632812 C-20.03777656 11.15752412 -20.02050055 6.0787743 -20 1 C-17.125 0.875 -17.125 0.875 -14 1 C-13.34 1.66 -12.68 2.32 -12 3 C-11.319375 2.505 -10.63875 2.01 -9.9375 1.5 C-6.23381194 -0.39124497 -4.11607555 -0.57769481 0 0 Z " fill="#FEF8F4" transform="translate(111,133)"/>
<path d="M0 0 C3.98561154 2.62688033 6.23980531 5.28191592 7.75 9.8125 C8.32539637 17.48076315 8.33194195 23.48432014 3.25 29.625 C-0.61969856 32.68851136 -5.60492171 32.19807493 -10.29296875 32.1640625 C-14.79866512 31.62837865 -16.31312119 30.21309652 -19.25 26.8125 C-21.5676919 23.24373565 -21.54905957 20.07289384 -21.5625 15.875 C-21.57925781 14.66972656 -21.59601563 13.46445313 -21.61328125 12.22265625 C-21.02884901 6.73653424 -18.32871198 3.38137298 -14.25 -0.1875 C-9.22141801 -1.863694 -4.90969589 -1.79392735 0 0 Z " fill="#FEF8F4" transform="translate(223.25,82.1875)"/>
<path d="M0 0 C3.64895424 3.37528267 5.32429367 5.87044174 5.93359375 10.87109375 C5.93488281 12.15113281 5.93617187 13.43117187 5.9375 14.75 C5.96650391 16.66619141 5.96650391 16.66619141 5.99609375 18.62109375 C5.42390324 22.87873176 4.18234892 24.99872223 1.5 28.3125 C-3.22712066 31.61049116 -7.89648784 32.21629228 -13.5 31.3125 C-19.09796083 28.51351958 -21.55251608 25.15495177 -23.5 19.3125 C-24.24029657 12.4799267 -23.5898052 6.95968135 -19.5 1.3125 C-14.41175119 -3.62155945 -5.98266357 -2.88449851 0 0 Z " fill="#FEF9F6" transform="translate(116.5,194.6875)"/>
<path d="M0 0 C2.5 1.6875 2.5 1.6875 4.5 4.6875 C4.81884766 7.41479492 4.81884766 7.41479492 4.9140625 10.66796875 C4.95273438 11.83134766 4.99140625 12.99472656 5.03125 14.19335938 C5.0621875 15.40830078 5.093125 16.62324219 5.125 17.875 C5.16367188 19.10154297 5.20234375 20.32808594 5.2421875 21.59179688 C5.33656103 24.62354656 5.42214549 27.65528841 5.5 30.6875 C2.53 31.1825 2.53 31.1825 -0.5 31.6875 C-0.83 30.6975 -1.16 29.7075 -1.5 28.6875 C-2.304375 29.1825 -3.10875 29.6775 -3.9375 30.1875 C-8.29867262 32.02378321 -11.83036215 32.35332289 -16.5 31.6875 C-19.78931514 29.96060955 -20.3140267 29.2454199 -21.5 25.6875 C-21.87935127 21.59050628 -21.94928789 19.40956983 -19.75 15.875 C-16.8028131 13.0096794 -14.84639424 11.78152194 -10.703125 11.4921875 C-9.72859375 11.51539063 -8.7540625 11.53859375 -7.75 11.5625 C-6.76515625 11.58054688 -5.7803125 11.59859375 -4.765625 11.6171875 C-3.64414063 11.65199219 -3.64414063 11.65199219 -2.5 11.6875 C-2.5 10.0375 -2.5 8.3875 -2.5 6.6875 C-7.84425837 4.90608054 -13.04780241 5.62365657 -18.5 6.6875 C-18.83 5.0375 -19.16 3.3875 -19.5 1.6875 C-13.2157404 -2.28150606 -6.87333003 -2.57749876 0 0 Z " fill="#FEF9F6" transform="translate(200.5,134.3125)"/>
<path d="M0 0 C2.96246937 3.47323995 2.93202507 5.50283583 2.91015625 10.0078125 C2.90693359 11.17441406 2.90371094 12.34101563 2.90039062 13.54296875 C2.89201172 14.76628906 2.88363281 15.98960937 2.875 17.25 C2.87048828 18.48105469 2.86597656 19.71210938 2.86132812 20.98046875 C2.8495133 24.02869392 2.83304028 27.07682314 2.8125 30.125 C-0.0625 30.25 -0.0625 30.25 -3.1875 30.125 C-3.8475 29.465 -4.5075 28.805 -5.1875 28.125 C-5.868125 28.62 -6.54875 29.115 -7.25 29.625 C-10.88997525 31.48371077 -13.14212873 31.55843264 -17.1875 31.125 C-21.7875 28.925 -21.7875 28.925 -23.1875 26.125 C-23.83655634 21.4054332 -23.9127827 18.15797839 -21.125 14.1875 C-15.71590711 10.38962627 -10.68381859 9.85984414 -4.1875 10.125 C-4.8475 8.475 -5.5075 6.825 -6.1875 5.125 C-7.77073688 5.097807 -9.35411062 5.07851694 -10.9375 5.0625 C-11.81921875 5.05089844 -12.7009375 5.03929687 -13.609375 5.02734375 C-15.9693838 5.11673802 -17.93248524 5.45587179 -20.1875 6.125 C-20.8125 3.75 -20.8125 3.75 -21.1875 1.125 C-16.22131169 -3.84118831 -5.68123641 -3.34190377 0 0 Z " fill="#FEFAF7" transform="translate(206.1875,194.875)"/>
<path d="M0 0 C3.17052662 1.66545172 5.37546311 3.75092622 7 7 C7.09677483 8.87432763 7.13075828 10.75208308 7.1328125 12.62890625 C7.13474609 14.30436523 7.13474609 14.30436523 7.13671875 16.01367188 C7.13285156 17.18478516 7.12898438 18.35589844 7.125 19.5625 C7.13080078 21.3249707 7.13080078 21.3249707 7.13671875 23.12304688 C7.13542969 24.23873047 7.13414062 25.35441406 7.1328125 26.50390625 C7.13168457 27.53330322 7.13055664 28.5627002 7.12939453 29.62329102 C7 32 7 32 6 33 C3.5625 33.25 3.5625 33.25 1 33 C0.34 32.01 -0.32 31.02 -1 30 C-1.474375 30.495 -1.94875 30.99 -2.4375 31.5 C-6.24711181 33.73001667 -9.69380517 33.78921364 -14 33 C-17.0625 31.0625 -17.0625 31.0625 -19 28 C-19.69040288 24.84468766 -19.72499604 22.1511639 -19 19 C-16.47031526 15.71824682 -14.92268669 14.30756223 -11 13 C-9.10529184 12.9314505 -7.2083166 12.91519628 -5.3125 12.9375 C-4.31863281 12.94652344 -3.32476562 12.95554688 -2.30078125 12.96484375 C-1.16189453 12.98224609 -1.16189453 12.98224609 0 13 C-0.99 11.02 -1.98 9.04 -3 7 C-7.8333472 6.91666643 -12.23692563 7.04738513 -17 8 C-17 6.35 -17 4.7 -17 3 C-11.59293653 -0.50728442 -6.26130075 -1.02187401 0 0 Z " fill="#FEF8F5" transform="translate(144,133)"/>
<path d="M0 0 C4.35944153 2.22084757 7.16830464 4.42076159 9 9 C9.33182949 12.03386964 9.45732817 14.97688259 9 18 C7 20 7 20 3.0859375 20.1953125 C1.51550649 20.18200376 -0.05486221 20.15813602 -1.625 20.125 C-2.42679688 20.11597656 -3.22859375 20.10695313 -4.0546875 20.09765625 C-6.03658523 20.07406223 -8.01832981 20.03819065 -10 20 C-9.67 21.98 -9.34 23.96 -9 26 C-7.2709226 26.02725341 -5.54171824 26.04650987 -3.8125 26.0625 C-2.36810547 26.07990234 -2.36810547 26.07990234 -0.89453125 26.09765625 C1.85576513 26.00486622 4.32479591 25.62111685 7 25 C7.33 26.65 7.66 28.3 8 30 C2.40645606 33.72902929 -3.42268883 33.96407164 -10 33 C-13.4539489 31.39212724 -15.42437488 29.16524112 -17.125 25.72265625 C-19.08901306 19.6114192 -19.35952951 11.69483254 -16.375 5.875 C-11.94916166 0.51740623 -6.7627017 -1.21485659 0 0 Z " fill="#FEF8F4" transform="translate(167,81)"/>
<path d="M0 0 C4.35944153 2.22084757 7.16830464 4.42076159 9 9 C9.33182949 12.03386964 9.45732817 14.97688259 9 18 C7 20 7 20 5.12060547 20.22705078 C4.37697754 20.21657715 3.63334961 20.20610352 2.8671875 20.1953125 C2.06152344 20.18886719 1.25585938 20.18242188 0.42578125 20.17578125 C-0.41597656 20.15902344 -1.25773437 20.14226562 -2.125 20.125 C-3.39923828 20.11146484 -3.39923828 20.11146484 -4.69921875 20.09765625 C-6.79959884 20.07405647 -8.89983444 20.03818483 -11 20 C-9.88145414 23.72614153 -9.88145414 23.72614153 -7 26 C-2.26055347 26.31658385 2.38447404 26.19110347 7 25 C7.33 26.65 7.66 28.3 8 30 C2.41048551 33.72634299 -3.42698516 33.97244603 -10 33 C-13.95529852 31.09054554 -16.44229565 28.07506585 -18 24 C-18.3359375 20.5390625 -18.3359375 20.5390625 -18.375 16.625 C-18.40335937 15.33851562 -18.43171875 14.05203125 -18.4609375 12.7265625 C-17.92890111 8.42518355 -16.71365744 6.33533169 -14 3 C-9.52451893 -0.05146436 -5.29132736 -0.95053785 0 0 Z " fill="#FEF8F4" transform="translate(84,81)"/>
<path d="M0 0 C1.2065625 0.0309375 1.2065625 0.0309375 2.4375 0.0625 C2.7675 1.0525 3.0975 2.0425 3.4375 3.0625 C4.076875 2.5675 4.71625 2.0725 5.375 1.5625 C9.36683035 -0.39268221 13.06661472 -0.88801786 17.4375 0.0625 C20.04956055 1.6862793 20.04956055 1.6862793 22.4375 4.0625 C23.00512695 7.08691406 23.00512695 7.08691406 22.92578125 10.578125 C22.90966797 11.82851562 22.89355469 13.07890625 22.87695312 14.3671875 C22.83505859 15.66914063 22.79316406 16.97109375 22.75 18.3125 C22.72744141 19.62992188 22.70488281 20.94734375 22.68164062 22.3046875 C22.62269594 25.55843404 22.54045053 28.80989671 22.4375 32.0625 C20.1275 32.0625 17.8175 32.0625 15.4375 32.0625 C15.41244385 31.34070557 15.3873877 30.61891113 15.36157227 29.87524414 C15.24598698 26.624965 15.12309226 23.37500312 15 20.125 C14.96068359 18.98869141 14.92136719 17.85238281 14.88085938 16.68164062 C14.83896484 15.60205078 14.79707031 14.52246094 14.75390625 13.41015625 C14.71724854 12.40992432 14.68059082 11.40969238 14.64282227 10.37915039 C14.69078159 8.10180812 14.69078159 8.10180812 13.4375 7.0625 C10.47932893 6.81244614 10.47932893 6.81244614 7.4375 7.0625 C4.87613779 9.62386221 5.14083143 10.72811331 5.0234375 14.2890625 C4.96542969 15.8359375 4.96542969 15.8359375 4.90625 17.4140625 C4.8753125 18.49429688 4.844375 19.57453125 4.8125 20.6875 C4.75449219 22.31945312 4.75449219 22.31945312 4.6953125 23.984375 C4.60083753 26.67691165 4.51527569 29.36943757 4.4375 32.0625 C2.10455225 32.10491723 -0.22952567 32.10342937 -2.5625 32.0625 C-4.44569268 30.17930732 -3.69304285 26.94319863 -3.6953125 24.4375 C-3.69626923 23.77540527 -3.69722595 23.11331055 -3.69821167 22.43115234 C-3.69889326 21.02897039 -3.69704042 19.6267853 -3.69287109 18.22460938 C-3.68752246 16.07154287 -3.6928167 13.91868498 -3.69921875 11.765625 C-3.69855796 10.40624954 -3.69727679 9.0468742 -3.6953125 7.6875 C-3.69418457 6.44226563 -3.69305664 5.19703125 -3.69189453 3.9140625 C-3.51818099 0.08580929 -3.51818099 0.08580929 0 0 Z " fill="#FEF9F6" transform="translate(132.5625,192.9375)"/>
<path d="M0 0 C2.5 1 2.5 1 4 2 C4 3.65 4 5.3 4 7 C0.7 7 -2.6 7 -6 7 C-6.12815365 9.3852733 -6.12815365 9.3852733 -5 12 C-3.06820798 13.23877246 -1.12448521 14.12521465 0.9921875 15.0078125 C3.19610625 16.09690853 4.48701166 17.06337493 6 19 C6.5375463 23.7611244 6.71502323 25.87979695 4.125 29.9375 C0.75196027 33.21133268 -1.32467828 33.1595435 -5.9375 33.1875 C-6.99839844 33.20167969 -8.05929688 33.21585938 -9.15234375 33.23046875 C-12 33 -12 33 -15 31 C-14.625 28.5625 -14.625 28.5625 -14 26 C-13.34 25.67 -12.68 25.34 -12 25 C-11.34 25.33 -10.68 25.66 -10 26 C-8.62657169 26.0689472 -7.24997898 26.08467708 -5.875 26.0625 C-4.59625 26.041875 -3.3175 26.02125 -2 26 C-2.16859572 24.06872807 -2.16859572 24.06872807 -3 22 C-4.97161482 20.57521943 -4.97161482 20.57521943 -7.375 19.5 C-10.89041797 17.80527082 -12.96243891 16.37671288 -15 13 C-15.5 9.5625 -15.5 9.5625 -15 6 C-10.43178409 0.47005442 -7.03622707 -0.59794025 0 0 Z " fill="#FEF7F4" transform="translate(55,81)"/>
<path d="M0 0 C3.5625 1.5 3.5625 1.5 6 3 C5.67 4.32 5.34 5.64 5 7 C3.0625 7.5625 3.0625 7.5625 1 8 C0.67 7.67 0.34 7.34 0 7 C-4.56893818 6.52561125 -4.56893818 6.52561125 -8.70703125 8.109375 C-10.61427951 10.89822139 -10.36140223 13.15960173 -10.3125 16.5 C-10.30863281 17.6446875 -10.30476563 18.789375 -10.30078125 19.96875 C-10.2222789 23.17556545 -10.2222789 23.17556545 -8 26 C-5.93093223 26.40223991 -5.93093223 26.40223991 -3.625 26.25 C-2.85414062 26.23453125 -2.08328125 26.2190625 -1.2890625 26.203125 C0.9054806 26.00838739 2.88364696 25.59915017 5 25 C5.33 26.65 5.66 28.3 6 30 C0.49705458 33.79652748 -4.48807434 33.9516752 -11 33 C-14.9616769 31.09112317 -17.42248387 28.07055502 -19 24 C-19.63424901 17.87875952 -19.91601252 12.04341253 -17.375 6.375 C-11.90297921 0.90297921 -7.67976016 -1.19097885 0 0 Z " fill="#FEF6F2" transform="translate(117,81)"/>
<path d="M0 0 C2.9375 1.5 2.9375 1.5 5 3 C4.67 4.32 4.34 5.64 4 7 C0.7 7 -2.6 7 -6 7 C-6.12815365 9.3852733 -6.12815365 9.3852733 -5 12 C-3.06820798 13.23877246 -1.12448521 14.12521465 0.9921875 15.0078125 C3.19610625 16.09690853 4.48701166 17.06337493 6 19 C6.5375463 23.7611244 6.71502323 25.87979695 4.125 29.9375 C0.75196027 33.21133268 -1.32467828 33.1595435 -5.9375 33.1875 C-6.99839844 33.20167969 -8.05929688 33.21585938 -9.15234375 33.23046875 C-12 33 -12 33 -15 31 C-14.67 29.35 -14.34 27.7 -14 26 C-10.04 26 -6.08 26 -2 26 C-1.67 24.68 -1.34 23.36 -1 22 C-1.86625 21.7525 -2.7325 21.505 -3.625 21.25 C-7.67969543 19.74826095 -11.9892331 18.0215338 -14 14 C-14.51571681 9.62063431 -14.83341277 6.14953485 -12.1875 2.5 C-8.18319837 -0.24580683 -4.75257951 -0.3277641 0 0 Z " fill="#FEF9F6" transform="translate(251,81)"/>
<path d="M0 0 C1.546875 0.00580078 1.546875 0.00580078 3.125 0.01171875 C5.92633186 0.30479287 7.61170203 0.87148368 10 2.3125 C10 3.9625 10 5.6125 10 7.3125 C8.64455078 7.24289063 8.64455078 7.24289063 7.26171875 7.171875 C5.49248047 7.11773437 5.49248047 7.11773437 3.6875 7.0625 C2.51574219 7.01609375 1.34398438 6.9696875 0.13671875 6.921875 C-3.03716836 7.00974486 -3.03716836 7.00974486 -4.8984375 9.05078125 C-7.12635254 13.62511744 -6.51796518 18.53661937 -5.125 23.3125 C-4.15936335 25.46628056 -4.15936335 25.46628056 -2 26.3125 C2.13483469 26.50044703 5.93989358 26.0858536 10 25.3125 C11.125 29.0625 11.125 29.0625 10 31.3125 C5.55226688 33.81434988 0.96194802 33.86480164 -4 33.3125 C-9.25766949 31.5268764 -11.33130198 29.11279959 -14 24.3125 C-14.53125 20.65625 -14.53125 20.65625 -14.5 16.8125 C-14.51546875 14.90984375 -14.51546875 14.90984375 -14.53125 12.96875 C-13.7961923 7.90982349 -11.71093605 5.0056138 -8.125 1.45703125 C-5.301299 -0.06382241 -3.19247546 -0.05187773 0 0 Z " fill="#FEF9F5" transform="translate(78,192.6875)"/>
<path d="M0 0 C2.5 0.125 2.5 0.125 3.5 1.125 C3.54092937 3.45797433 3.54241723 5.79205225 3.5 8.125 C5.48 8.125 7.46 8.125 9.5 8.125 C9.542721 9.79111905 9.54063832 11.45882885 9.5 13.125 C9.17 13.455 8.84 13.785 8.5 14.125 C6.85 14.125 5.2 14.125 3.5 14.125 C3.5 20.725 3.5 27.325 3.5 34.125 C5.48 34.125 7.46 34.125 9.5 34.125 C9.542721 35.79111905 9.54063832 37.45882885 9.5 39.125 C7.93081508 40.69418492 6.35914841 40.40758943 4.1875 40.5 C3.40761719 40.54898438 2.62773437 40.59796875 1.82421875 40.6484375 C-0.5 40.125 -0.5 40.125 -2.77734375 38.27734375 C-5.3077266 33.64691527 -4.93096687 29.49441663 -4.75 24.3125 C-4.73195312 23.33345703 -4.71390625 22.35441406 -4.6953125 21.34570312 C-4.64832887 18.93779229 -4.58265694 16.53190665 -4.5 14.125 C-5.82 13.795 -7.14 13.465 -8.5 13.125 C-8.5 11.475 -8.5 9.825 -8.5 8.125 C-7.18 8.125 -5.86 8.125 -4.5 8.125 C-4.355625 6.990625 -4.21125 5.85625 -4.0625 4.6875 C-3.34880637 0.16744032 -3.34880637 0.16744032 0 0 Z " fill="#FEF6F2" transform="translate(188.5,73.875)"/>
<path d="M0 0 C1.4540625 0.0309375 1.4540625 0.0309375 2.9375 0.0625 C2.9375 2.3725 2.9375 4.6825 2.9375 7.0625 C4.9175 7.0625 6.8975 7.0625 8.9375 7.0625 C8.9375 9.0425 8.9375 11.0225 8.9375 13.0625 C6.9575 13.0625 4.9775 13.0625 2.9375 13.0625 C2.9375 19.6625 2.9375 26.2625 2.9375 33.0625 C4.9175 33.0625 6.8975 33.0625 8.9375 33.0625 C9.2675 34.7125 9.5975 36.3625 9.9375 38.0625 C6.20494552 40.55086965 4.35309065 40.60476552 -0.0625 40.0625 C-2.75233249 37.84398329 -3.93318879 36.07412306 -4.37866211 32.58911133 C-4.45651997 29.63281023 -4.41083118 26.70560826 -4.3125 23.75 C-4.29445312 22.72326172 -4.27640625 21.69652344 -4.2578125 20.63867188 C-4.21081063 18.11232115 -4.14512272 15.58789531 -4.0625 13.0625 C-5.3825 13.0625 -6.7025 13.0625 -8.0625 13.0625 C-8.0625 11.0825 -8.0625 9.1025 -8.0625 7.0625 C-6.7425 7.0625 -5.4225 7.0625 -4.0625 7.0625 C-4.083125 6.093125 -4.10375 5.12375 -4.125 4.125 C-4.0425 0.0825 -4.0425 0.0825 0 0 Z " fill="#FEFAF7" transform="translate(169.0625,185.9375)"/>
<path d="M0 0 C0.556875 0.226875 1.11375 0.45375 1.6875 0.6875 C1.6875 2.6675 1.6875 4.6475 1.6875 6.6875 C-1.24074652 7.66358217 -3.26863276 7.76976668 -6.3125 7.6875 C-6.33755615 8.40929443 -6.3626123 9.13108887 -6.38842773 9.87475586 C-6.50401302 13.125035 -6.62690774 16.37499688 -6.75 19.625 C-6.78931641 20.76130859 -6.82863281 21.89761719 -6.86914062 23.06835938 C-6.91103516 24.14794922 -6.95292969 25.22753906 -6.99609375 26.33984375 C-7.05108032 27.84019165 -7.05108032 27.84019165 -7.10717773 29.37084961 C-7.3125 31.6875 -7.3125 31.6875 -8.3125 32.6875 C-11.3125 32.8125 -11.3125 32.8125 -14.3125 32.6875 C-16.19569268 30.80430732 -15.44304285 27.56819863 -15.4453125 25.0625 C-15.44626923 24.40040527 -15.44722595 23.73831055 -15.44821167 23.05615234 C-15.44889326 21.65397039 -15.44704042 20.2517853 -15.44287109 18.84960938 C-15.43752246 16.69654287 -15.4428167 14.54368498 -15.44921875 12.390625 C-15.44855796 11.03124954 -15.44727679 9.6718742 -15.4453125 8.3125 C-15.44418457 7.06726563 -15.44305664 5.82203125 -15.44189453 4.5390625 C-15.3125 1.6875 -15.3125 1.6875 -14.3125 0.6875 C-11.875 0.5 -11.875 0.5 -9.3125 0.6875 C-8.6525 1.3475 -7.9925 2.0075 -7.3125 2.6875 C-6.57 2.171875 -5.8275 1.65625 -5.0625 1.125 C-2.3125 -0.3125 -2.3125 -0.3125 0 0 Z " fill="#FDF4EE" transform="translate(144.3125,81.3125)"/>
<path d="M0 0 C2.5625 0.1875 2.5625 0.1875 4.5625 2.1875 C5.5525 1.5275 6.5425 0.8675 7.5625 0.1875 C10.25 0.0625 10.25 0.0625 12.5625 0.1875 C13.6875 4.9375 13.6875 4.9375 12.5625 7.1875 C10.2525 7.1875 7.9425 7.1875 5.5625 7.1875 C5.53744385 7.90929443 5.5123877 8.63108887 5.48657227 9.37475586 C5.37098698 12.625035 5.24809226 15.87499688 5.125 19.125 C5.08568359 20.26130859 5.04636719 21.39761719 5.00585938 22.56835938 C4.96396484 23.64794922 4.92207031 24.72753906 4.87890625 25.83984375 C4.82391968 27.34019165 4.82391968 27.34019165 4.76782227 28.87084961 C4.5625 31.1875 4.5625 31.1875 3.5625 32.1875 C1.22952567 32.22842937 -1.10455225 32.22991723 -3.4375 32.1875 C-3.46215504 27.79093827 -3.48033842 23.3944128 -3.49243164 18.99780273 C-3.49747121 17.50105082 -3.50430287 16.00430384 -3.51293945 14.50756836 C-3.52502159 12.36050193 -3.53073191 10.21350038 -3.53515625 8.06640625 C-3.54039307 6.7729126 -3.54562988 5.47941895 -3.55102539 4.14672852 C-3.40198303 0.261691 -3.40198303 0.261691 0 0 Z " fill="#FEF6F2" transform="translate(221.4375,192.8125)"/>
<path d="M0 0 C1 1 1 1 1.0625 3.5625 C1.041875 4.366875 1.02125 5.17125 1 6 C0.43410156 6.20496094 -0.13179687 6.40992188 -0.71484375 6.62109375 C-1.44832031 6.89050781 -2.18179688 7.15992188 -2.9375 7.4375 C-4.03384766 7.83775391 -4.03384766 7.83775391 -5.15234375 8.24609375 C-6.98305678 8.85386948 -6.98305678 8.85386948 -8 10 C-8.15740605 11.70563778 -8.25093392 13.41727244 -8.31640625 15.12890625 C-8.35830078 16.16337891 -8.40019531 17.19785156 -8.44335938 18.26367188 C-8.48267578 19.35228516 -8.52199219 20.44089844 -8.5625 21.5625 C-8.62727539 23.2012207 -8.62727539 23.2012207 -8.69335938 24.87304688 C-8.79982068 27.58189564 -8.90183516 30.29083992 -9 33 C-10.99954746 33.04254356 -13.00041636 33.04080783 -15 33 C-16 32 -16 32 -16.11352539 29.04077148 C-16.10828857 27.74727783 -16.10305176 26.45378418 -16.09765625 25.12109375 C-16.0962413 24.4344313 -16.09482635 23.74776886 -16.09336853 23.04029846 C-16.08775479 20.83932199 -16.07520007 18.63844591 -16.0625 16.4375 C-16.05748676 14.94856917 -16.05292355 13.45963676 -16.04882812 11.97070312 C-16.03778093 8.31376925 -16.02050713 4.65689442 -16 1 C-14.02 1 -12.04 1 -10 1 C-10 1.99 -10 2.98 -10 4 C-9.278125 3.34 -8.55625 2.68 -7.8125 2 C-4.7845747 -0.15319133 -3.60748837 -0.50104005 0 0 Z " fill="#FEFBF9" transform="translate(176,133)"/>
<path d="M0 0 C3.5625 0.5625 3.5625 0.5625 6 2.4375 C8.21909679 6.87569358 8.20228876 10.69210807 7.5625 15.5625 C6.5 18.625 6.5 18.625 4.5625 20.5625 C1.125 21.6875 1.125 21.6875 -2.4375 21.5625 C-4.875 19.875 -4.875 19.875 -6.4375 16.5625 C-7.02874836 11.63095115 -7.62000656 6.66708013 -5.125 2.2265625 C-3.4375 0.5625 -3.4375 0.5625 0 0 Z " fill="#EB612A" transform="translate(107.4375,198.4375)"/>
<path d="M0 0 C2.95117683 2.22821943 3.90376171 3.39983681 4.49609375 7.09375 C4.47675781 8.2178125 4.45742187 9.341875 4.4375 10.5 C4.43621094 11.6240625 4.43492187 12.748125 4.43359375 13.90625 C3.96584984 17.24366604 3.40920613 18.67444686 1 21 C-2.4375 21.5625 -2.4375 21.5625 -6 21 C-8.6853658 18.86547847 -9.79195044 17.28612453 -10.34375 13.875 C-10.54638053 8.87678025 -9.77995857 5.27685934 -7 1 C-4.4086487 -0.29567565 -2.87704151 -0.34250494 0 0 Z " fill="#EB622B" transform="translate(219,87)"/>
<path d="M0 0 C2.36398846 3.54598268 2.29818374 5.23329099 2.3125 9.4375 C2.32925781 10.57058594 2.34601563 11.70367187 2.36328125 12.87109375 C1.96936675 16.26384119 1.46456011 17.66545109 -1 20 C-4.5625 20.375 -4.5625 20.375 -8 20 C-10.92980811 17.07019189 -10.36810632 13.98155524 -10.375 10.0625 C-10.39949219 9.33353516 -10.42398438 8.60457031 -10.44921875 7.85351562 C-10.47851451 2.52657045 -10.47851451 2.52657045 -8.171875 -0.01171875 C-5.08486768 -1.41641812 -3.1976124 -0.97318638 0 0 Z " fill="#EB6028" transform="translate(109,140)"/>
<path d="M0 0 C1.21816406 0.03480469 1.21816406 0.03480469 2.4609375 0.0703125 C3.68683594 0.09738281 3.68683594 0.09738281 4.9375 0.125 C5.87722656 0.15980469 5.87722656 0.15980469 6.8359375 0.1953125 C7.1484375 2.4453125 7.1484375 2.4453125 6.8359375 5.1953125 C4.34034016 7.8335154 2.77037614 9.06492571 -0.8515625 9.5703125 C-3.1640625 9.1953125 -3.1640625 9.1953125 -5.1640625 7.1953125 C-4.78428356 3.39752315 -4.32156606 0.39003304 0 0 Z " fill="#EC6832" transform="translate(195.1640625,210.8046875)"/>
<path d="M0 0 C3.4375 0.875 3.4375 0.875 5.4375 3.875 C5.4375 5.195 5.4375 6.515 5.4375 7.875 C1.1475 7.875 -3.1425 7.875 -7.5625 7.875 C-6.5625 2.875 -6.5625 2.875 -5.4375 1 C-3.5625 -0.125 -3.5625 -0.125 0 0 Z " fill="#EC652E" transform="translate(80.5625,87.125)"/>
<path d="M0 0 C3.4375 0.875 3.4375 0.875 5.4375 3.875 C5.4375 5.195 5.4375 6.515 5.4375 7.875 C1.1475 7.875 -3.1425 7.875 -7.5625 7.875 C-6.5625 2.875 -6.5625 2.875 -5.4375 1 C-3.5625 -0.125 -3.5625 -0.125 0 0 Z " fill="#EC642D" transform="translate(163.5625,87.125)"/>
<path d="M0 0 C0.25 2.8125 0.25 2.8125 0 6 C-2.31864514 8.67535978 -3.64975756 8.97253 -7.1875 9.25 C-10 9 -10 9 -11 8 C-11.28417861 5.30030316 -11.32477191 3.58864909 -10 1.1875 C-6.76011038 -0.73618446 -3.7174181 -0.18282384 0 0 Z " fill="#EC662F" transform="translate(198,151)"/>
<path d="M0 0 C0.25 2.8125 0.25 2.8125 0 6 C-1.625 7.875 -1.625 7.875 -4 9 C-7.25 9.1875 -7.25 9.1875 -10 9 C-10.33 7.02 -10.66 5.04 -11 3 C-7.48550811 -0.37391222 -4.73940561 -0.27342725 0 0 Z " fill="#EC642D" transform="translate(143,151)"/>
</svg>
